<?xml version="1.0" encoding="utf-8"?>
<!-- Generator: Adobe Illustrator 16.0.0, SVG Export Plug-In . SVG Version: 6.00 Build 0)  -->
<!DOCTYPE svg PUBLIC "-//W3C//DTD SVG 1.1//EN" "http://www.w3.org/Graphics/SVG/1.1/DTD/svg11.dtd">
<svg version="1.1" id="レイヤー_1" xmlns="http://www.w3.org/2000/svg" xmlns:xlink="http://www.w3.org/1999/xlink" x="0px"
	 y="0px" width="763.993px" height="214.5px" viewBox="0 0 763.993 214.5" enable-background="new 0 0 763.993 214.5"
	 xml:space="preserve">
<g id="レイヤー_1_3_" display="none">
	<g id="レイヤー_1_2_" display="inline">
		<g id="レイヤー_1_1_">
			<rect x="4.196" y="21.706" fill="#165098" width="72" height="72"/>
			<path fill="#2963AE" d="M72.147,83.702c0,5.714-4.632,10.346-10.346,10.346H13.917c-5.714,0-10.346-4.632-10.346-10.346V35.818
				c0-5.714,4.632-10.346,10.346-10.346h47.884c5.714,0,10.346,4.632,10.346,10.346V83.702z"/>
			<path fill="#2963AE" d="M251.761,30.262l22.056-9.228v118.798H251.79v-9.277c-4.299,4.092-8.611,7.035-12.936,8.84
				c-4.326,1.809-9.015,2.701-14.064,2.701c-11.335,0-21.142-4.395-29.417-13.188c-8.273-8.789-12.41-19.729-12.41-32.8
				c0-13.556,4.002-24.661,12.008-33.324c8.006-8.659,17.729-12.99,29.175-12.99c5.265,0,10.207,0.999,14.827,2.99
				c4.621,1.991,8.892,4.977,12.815,8.957L251.761,30.262z M228.634,70.119c-6.811,0-12.465,2.407-16.969,7.223
				c-4.503,4.81-6.755,10.984-6.755,18.514c0,7.589,2.29,13.826,6.874,18.72c4.583,4.896,10.226,7.342,16.927,7.342
				c6.917,0,12.654-2.408,17.209-7.221c4.556-4.814,6.837-11.118,6.837-18.922c0-7.636-2.279-13.818-6.837-18.553
				C241.366,72.487,235.602,70.119,228.634,70.119z"/>
			<path fill="#2963AE" d="M278.792,17.042l22.027-7.436v130.226h-22.027V17.042z"/>
			<path fill="#2963AE" d="M305.877,52.044h22.271v42.28c0,8.229,0.564,13.945,1.696,17.146c1.131,3.199,2.953,5.688,5.46,7.468
				c2.507,1.771,5.595,2.657,9.263,2.657c3.666,0,6.778-0.868,9.34-2.618c2.561-1.752,4.462-4.313,5.704-7.709
				c0.915-2.521,1.375-7.938,1.375-16.22V52.044h22.028v37.197c0,15.329-1.211,25.819-3.631,31.468
				c-2.961,6.889-7.313,12.172-13.071,15.859c-5.755,3.686-13.069,5.521-21.944,5.521c-9.629,0-17.416-2.148-23.359-6.449
				c-5.941-4.309-10.126-10.301-12.547-17.994c-1.722-5.326-2.583-15.008-2.583-29.046L305.877,52.044L305.877,52.044z"/>
			<path fill="#2963AE" d="M388.436,52.044h22.025v10.088c3.768-4.146,7.955-7.233,12.561-9.28c4.6-2.042,9.617-3.065,15.057-3.065
				c5.488,0,10.439,1.346,14.854,4.035c4.416,2.691,7.977,6.616,10.658,11.78c3.498-5.164,7.789-9.088,12.879-11.78
				c5.086-2.689,10.646-4.035,16.68-4.035c6.238,0,11.734,1.452,16.479,4.362c4.729,2.905,8.145,6.697,10.217,11.376
				c2.074,4.68,3.111,12.291,3.111,22.834v51.473H500.76V95.291c0-9.948-1.238-16.688-3.711-20.207
				c-2.475-3.524-6.188-5.286-11.135-5.286c-3.762,0-7.139,1.078-10.127,3.227c-2.99,2.153-5.201,5.125-6.654,8.916
				c-1.451,3.791-2.176,9.883-2.176,18.28v39.617h-22.189V97.311c0-7.853-0.584-13.543-1.738-17.064
				c-1.16-3.524-2.9-6.15-5.217-7.873c-2.316-1.722-5.127-2.582-8.41-2.582c-3.672,0-6.998,1.09-9.992,3.269
				c-2.996,2.18-5.225,5.232-6.713,9.156c-1.482,3.928-2.229,10.115-2.229,18.559v39.054h-22.025L388.436,52.044L388.436,52.044z"/>
			<path fill="#2963AE" d="M527.391,52.044h22.029v8.999c4.99-4.212,9.52-7.14,13.574-8.789c4.053-1.645,8.207-2.468,12.447-2.468
				c8.695,0,16.084,3.04,22.146,9.123c5.105,5.164,7.654,12.803,7.654,22.915v58.008h-21.787v-38.443
				c0-10.477-0.469-17.436-1.414-20.872c-0.934-3.441-2.57-6.058-4.904-7.859c-2.338-1.806-5.221-2.706-8.645-2.706
				c-4.449,0-8.279,1.491-11.467,4.473c-3.195,2.987-5.404,7.106-6.646,12.371c-0.645,2.74-0.965,8.678-0.965,17.812v35.222h-22.029
				L527.391,52.044L527.391,52.044z"/>
			<path fill="#2963AE" d="M699.631,102.311H628.87c1.021,6.242,3.754,11.205,8.189,14.89c4.441,3.684,10.1,5.529,16.982,5.529
				c8.229,0,15.305-2.877,21.223-8.645l18.557,8.721c-4.625,6.563-10.166,11.418-16.621,14.563
				c-6.455,3.146-14.121,4.719-22.996,4.719c-13.77,0-24.988-4.346-33.645-13.029c-8.66-8.688-12.99-19.572-12.99-32.64
				c0-13.394,4.316-24.515,12.951-33.361c8.637-8.846,19.457-13.275,32.477-13.275c13.822,0,25.064,4.43,33.727,13.275
				c8.656,8.848,12.988,20.532,12.988,35.057L699.631,102.311z M677.606,84.964c-1.459-4.893-4.324-8.875-8.607-11.941
				c-4.285-3.066-9.256-4.599-14.91-4.599c-6.145,0-11.533,1.723-16.162,5.164c-2.906,2.153-5.604,5.945-8.086,11.376H677.606z"/>
			<path fill="#2963AE" d="M705.256,33.567l22.025,11.428v7.05h13.063v18.967h-13.063v68.82h-22.025V71.008h-11.297V52.044h11.297
				V33.567z"/>
			<polygon fill="#FFFFFF" points="62.625,32.38 56.84,79.116 38.982,72.233 33.494,83.207 33.894,70.421 56.241,39.81 
				24.018,66.745 4.863,58.565 			"/>
			<g>
				<path fill="#2963AE" d="M750.301,129.295c1.234,0.396,1.969,1.59,2.348,3.326c0.502,2.305,0.855,3.705,1.17,4.313h-1.803
					c-0.246-0.461-0.604-1.863-1.021-3.854c-0.457-2.213-1.338-3.201-3.225-3.201h-1.945v7.055h-1.736v-15.715
					c0.982-0.211,2.365-0.336,3.621-0.336c2.07,0,3.428,0.42,4.371,1.297c0.754,0.689,1.193,1.777,1.193,2.971
					c0,2.115-1.273,3.479-2.973,4.084V129.295L750.301,129.295z M747.875,128.541c2.217,0,3.643-1.254,3.643-3.18
					c0-2.365-1.779-3.104-3.727-3.104c-0.939,0-1.613,0.091-1.969,0.173v6.106L747.875,128.541L747.875,128.541z"/>
			</g>
			<circle fill="none" stroke="#2963AE" stroke-miterlimit="10" cx="748.293" cy="129.076" r="11.699"/>
			<polygon fill="#2963AE" points="94.185,7 35.927,40.591 35.927,56.336 81.064,82.578 81.064,135.064 94.185,142.938 
				153.493,108.822 153.493,40.591 			"/>
			<polygon fill="#00B9BC" points="5.485,90.977 5.485,126.143 35.927,143.461 65.843,126.143 65.843,90.977 35.927,74.181 			"/>
			<g>
				<path fill="#878787" d="M38.076,185.502l5-0.156l-0.781-2.344l2.344-0.781c0.938,1.875,1.719,4.064,2.344,6.564l-2.656,0.781
					l-0.625-2.189l-3.125,0.314v16.875h-3.125V188.16l-4.531,0.469c-0.522,0.938-0.835,0.887-0.938-0.156l-0.625-2.656h3.125
					l2.5-3.438c-1.355-1.563-3.125-2.969-5.313-4.219l1.875-2.5l1.094,0.625l4.688-7.5l3.125,1.563
					c0.313,0.211,0.051,0.418-0.781,0.625l-4.844,7.031l2.031,1.719l4.063-6.406l2.813,1.563c0.313,0.211,0.051,0.418-0.781,0.625
					L38.076,185.502z M35.576,193.002c0,2.605-0.366,5.523-1.094,8.75l-2.969-1.094c0.833-3.229,1.25-6.301,1.25-9.219l2.969,0.625
					C36.357,192.275,36.304,192.588,35.576,193.002z M43.545,198.785c-0.313-2.604-0.938-4.844-1.875-6.719l2.188-0.625
					c1.145,1.459,1.926,3.646,2.344,6.563L43.545,198.785z M53.232,171.91c0.938,0.418,0.884,0.73-0.156,0.938
					c-1.355,3.438-3.335,6.771-5.938,10l-2.5-2.031c2.395-2.707,4.321-6.039,5.781-10L53.232,171.91z M45.576,201.127
					c0.938-2.5,1.509-5,1.719-7.5l2.813,0.781c0.833,0.313,0.781,0.574-0.156,0.781c-0.417,2.813-0.991,5.156-1.719,7.031
					L45.576,201.127z M57.92,183.316l1.875-1.406c1.875,1.875,3.281,3.646,4.219,5.313l-2.344,1.719l-1.094-1.719l-11.406,1.094
					c-0.313,0.521-0.574,0.625-0.781,0.313l-0.625-3.125h2.969l3.125-8.278l2.969,0.938c0.415,0.418,0.259,0.678-0.469,0.78
					l-2.969,6.563l5.938-0.313L57.92,183.316z M54.326,192.066c0.833,0.104,0.884,0.418,0.156,0.938v7.031
					c0,0.625,0.313,0.938,0.938,0.938h3.438c0.938,0,1.301-0.988,1.094-2.969l2.969,0.781c0.208,3.125-0.73,4.688-2.813,4.688
					h-5.781c-1.667,0-2.5-0.887-2.5-2.656v-8.75H54.326L54.326,192.066z M56.982,188.627c1.145,1.25,2.188,2.762,3.125,4.531
					l-2.5,1.719c-0.835-1.875-1.824-3.383-2.969-4.531L56.982,188.627z M65.107,183.16c-3.75-2.814-6.511-6.666-8.281-11.564
					l2.813-1.094c2.083,4.586,4.688,7.918,7.813,10L65.107,183.16z M65.107,200.346c-1.042-2.08-2.344-4.164-3.906-6.25l2.344-1.719
					c1.458,1.668,2.864,3.75,4.219,6.25L65.107,200.346z"/>
				<path fill="#878787" d="M111.437,181.752l-1.563,3.594c-7.085-2.602-12.656-6.719-16.719-12.344
					c-1.875,3.855-4.48,6.93-7.813,9.219h17.344v2.971h-17.5v-2.813c-1.875,1.563-4.063,2.918-6.563,4.063l-2.188-2.971
					c7.603-3.539,12.603-8.279,15-14.219l4.063,0.781c0.728,0.105,0.676,0.418-0.156,0.938
					C99.406,176.076,104.77,179.67,111.437,181.752z M85.5,204.41h-3.125v-15.469h23.281v15h-3.125v-1.721H85.5V204.41z
					 M85.5,199.252h17.031v-7.344H85.5V199.252z"/>
				<path fill="#878787" d="M140.424,185.346c0.208,7.92-3.179,14.064-10.156,18.439l-2.656-2.969
					c6.145-3.332,9.219-8.021,9.219-14.064v-6.719h3.281c0.938,0.105,1.04,0.469,0.313,1.094v4.064
					c3.75-2.814,6.614-5.572,8.594-8.281l-25.469,0.938l-0.313-3.594l28.438-0.781l1.094-0.313l2.344,2.813
					c0.313,0.418,0.051,0.574-0.781,0.469c-3.125,4.063-6.875,7.867-11.25,11.406L140.424,185.346z"/>
				<path fill="#878787" d="M166.754,200.971c5.208-5,7.813-11.195,7.813-18.594v-7.031h3.281c0.938,0.211,1.04,0.625,0.313,1.25
					v5.625c0,8.75-2.761,15.68-8.281,20.781L166.754,200.971z M187.691,196.752c4.583-1.77,8.801-5.313,12.656-10.625l2.188,2.969
					c-3.96,5.418-8.96,9.324-15,11.721l-1.25,0.625l-2.5-1.875l0.313-0.775v-25.16h3.281c0.938,0.209,1.04,0.625,0.313,1.25
					L187.691,196.752L187.691,196.752z"/>
				<path fill="#878787" d="M212.146,195.66l6.563-0.156c3.75-8.125,6.614-16.406,8.594-24.844l3.594,1.25
					c0.938,0.625,0.833,1.094-0.313,1.406c-1.98,7.396-4.636,14.688-7.969,21.875l16.25-0.781c-2.188-2.916-3.906-5.051-5.156-6.406
					l3.125-2.188c3.54,3.854,6.926,8.387,10.156,13.594l-3.438,2.344l-2.5-4.063l-26.25,2.023c-0.625,1.047-1.094,1.047-1.406,0
					L212.146,195.66z"/>
				<path fill="#878787" d="M276.132,180.502h14.531v3.439h-14.375v2.813c0,7.709-3.335,13.543-10,17.5l-3.281-2.5
					c6.458-3.332,9.688-8.332,9.688-15v-2.813h-15.469v-3.439h15.313v-9.375h3.125c1.145,0.105,1.301,0.523,0.469,1.25
					L276.132,180.502L276.132,180.502z"/>
				<path fill="#878787" d="M303.4,189.877c10.938-4.582,19.219-11.039,24.844-19.375l2.969,2.5
					c0.832,0.625,0.469,1.094-1.094,1.406c-1.98,2.605-4.531,5.262-7.656,7.969v21.25h-3.594v-18.281
					c-3.648,2.814-7.918,5.367-12.813,7.656L303.4,189.877z"/>
				<path fill="#878787" d="M381.604,172.377v2.5h-7.5l1.563,3.125l-3.438,0.625l-1.404-3.75h-2.5
					c-0.625,1.043-1.355,2.031-2.188,2.969v2.031h14.688v7.031h-3.125v-4.531h-25.781v4.531h-3.125v-7.031h0.625l-2.031-2.5
					c3.021-2.395,5.156-5.258,6.406-8.594l3.281,0.313c0.52,0.314,0.415,0.625-0.313,0.939c-0.521,1.043-0.938,1.824-1.25,2.344
					h8.75v2.5h-4.844l1.406,3.125l-3.438,0.781l-1.094-3.906h-2.031c-1.146,1.668-2.654,3.334-4.529,5h13.279v-1.719l-0.625-0.781
					c2.707-2.604,4.426-5.469,5.156-8.594l3.281,0.313c0.415,0.313,0.313,0.625-0.313,0.938c-0.418,1.043-0.78,1.823-1.094,2.344
					h12.19L381.604,172.377L381.604,172.377z M374.886,184.721v8.125h-17.344v2.031h18.906v9.531h-3.125v-0.938h-15.781v1.25h-3.125
					v-20L374.886,184.721L374.886,184.721z M371.761,187.221h-14.219v3.125h14.219V187.221z M373.323,197.377h-15.781v3.594h15.781
					V197.377z"/>
				<path fill="#878787" d="M405.122,195.191c-4.063,1.459-7.865,2.652-11.404,3.594c-0.313,0.834-0.625,0.99-0.938,0.469
					l-1.094-3.594l5.469-1.094v-8.598h-4.219V183h4.219v-8.279h-4.688v-2.971h12.5v2.971h-4.688V183h4.219v2.971h-4.219v7.813
					c0.828-0.104,2.344-0.521,4.523-1.25L405.122,195.191z M417.465,187.846v4.531h8.75v2.969h-8.75v4.846h10.314v2.975h-24.854
					v-2.975h11.875v-4.846h-8.438v-2.969h8.438v-4.531h-5.625v2.031h-2.652v-19.219h19.379v18.594h-2.656v-1.406H417.465z
					 M414.809,178.16v-5h-5.625v5H414.809z M414.809,180.66h-5.625v4.688h5.625V180.66z M423.247,173.16h-5.779v5h5.779V173.16z
					 M423.247,180.66h-5.779v4.688h5.779V180.66z"/>
				<path fill="#878787" d="M441.608,176.285l3.438-1.875c1.771,2.188,3.646,5.209,5.625,9.063l-3.594,2.031
					C445.202,181.441,443.377,178.369,441.608,176.285z M464.733,174.41l3.906,0.625c0.938,0.209,0.885,0.678-0.156,1.406
					c-0.625,6.668-2.555,12.293-5.781,16.875c-2.396,3.438-6.875,6.875-13.438,10.313l-2.813-2.813
					c5.938-2.707,10.414-6.096,13.438-10.156C462.284,187.432,463.899,182.016,464.733,174.41z"/>
				<path fill="#878787" d="M493.407,190.971h-3.594v-17.654h3.438c1.041,0.104,1.096,0.521,0.156,1.25V190.971z M509.5,187.535
					c0,7.813-3.646,13.438-10.939,16.875l-3.125-2.656c6.875-3.125,10.363-7.916,10.471-14.375v-15.625h3.279
					c1.041,0.209,1.146,0.625,0.314,1.25V187.535z"/>
				<path fill="#878787" d="M558.956,200.035h-28.125v-2.969h16.875l0.313-11.721h-12.813v-2.975h15.938l-0.313,14.688h8.125
					V200.035z"/>
				<path fill="#878787" d="M572.473,188.471v-3.438h34.844v3.438H572.473z"/>
				<path fill="#878787" d="M630.834,184.877l-2.5,3.281c-3.125-2.289-5.73-3.957-7.814-5l2.346-3.281
					C625.469,181.234,628.125,182.9,630.834,184.877z M623.959,198.785c11.354-2.5,19.895-8.385,25.625-17.656l2.814,2.813
					c-5.314,8.543-13.555,14.586-24.689,18.125c-0.314,1.25-0.834,1.307-1.564,0.156L623.959,198.785z M635.209,175.66l-2.189,3.281
					c-2.813-1.979-5.418-3.646-7.813-5l2.031-3.281C630.053,172.221,632.709,173.891,635.209,175.66z"/>
				<path fill="#878787" d="M670.602,201.285v-2.969h15.938v-6.564h-15v-2.969h15v-6.25h-15.938v-2.969h19.063v23.438h-3.125v-1.719
					h-15.938V201.285z"/>
				<path fill="#878787" d="M742.401,183.16c-5.521,11.459-14.793,17.5-27.813,18.125c-0.521,1.352-1.043,1.457-1.563,0.313
					l-1.25-4.063c13.539-0.314,22.645-5.885,27.344-16.719L742.401,183.16z M712.401,176.752l2.656-3.281
					c2.188,1.355,4.945,3.596,8.281,6.721l-2.969,2.975C717.557,180.557,714.901,178.42,712.401,176.752z"/>
			</g>
		</g>
		<g>
			<g>
				<path fill="#24333A" d="M730.551,133.918c1.234,0.396,1.969,1.59,2.348,3.326c0.502,2.305,0.855,3.705,1.17,4.313h-1.803
					c-0.246-0.461-0.604-1.863-1.021-3.854c-0.457-2.213-1.338-3.201-3.225-3.201h-1.945v7.055h-1.736v-15.715
					c0.982-0.211,2.365-0.336,3.621-0.336c2.07,0,3.428,0.42,4.371,1.297c0.754,0.689,1.193,1.777,1.193,2.971
					c0,2.115-1.273,3.479-2.973,4.084V133.918L730.551,133.918z M728.125,133.164c2.217,0,3.643-1.254,3.643-3.18
					c0-2.365-1.779-3.104-3.727-3.104c-0.939,0-1.613,0.09-1.969,0.168v6.111L728.125,133.164L728.125,133.164z"/>
			</g>
			<circle fill="none" stroke="#4F5356" stroke-miterlimit="10" cx="728.543" cy="133.699" r="11.699"/>
		</g>
		<g>
			<path fill="#999999" d="M61.941,187.578l4.648-0.143l-0.726-2.127l2.179-0.709c0.873,1.698,1.598,3.688,2.18,5.959l-2.47,0.711
				l-0.581-1.985l-2.907,0.282v15.322H61.36v-14.896l-4.212,0.427c-0.486,0.851-0.776,0.806-0.872-0.146l-0.581-2.409H58.6
				l2.325-3.122c-1.26-1.419-2.905-2.695-4.94-3.83l1.744-2.271l1.017,0.566l4.358-6.811l2.906,1.418
				c0.292,0.188,0.047,0.381-0.727,0.564l-4.503,6.389l1.889,1.561l3.777-5.816l2.615,1.418c0.291,0.189,0.047,0.381-0.726,0.567
				L61.941,187.578z M59.617,194.391c0,2.365-0.34,5.02-1.018,7.945l-2.76-0.993c0.774-2.933,1.163-5.722,1.163-8.372l2.76,0.568
				C60.343,193.729,60.294,194.014,59.617,194.391z M67.025,199.643c-0.29-2.367-0.872-4.396-1.743-6.103l2.035-0.565
				c1.063,1.322,1.791,3.313,2.179,5.957L67.025,199.643z M76.032,175.236c0.872,0.38,0.822,0.664-0.145,0.851
				c-1.259,3.123-3.1,6.149-5.521,9.082l-2.324-1.845c2.227-2.459,4.018-5.483,5.375-9.081L76.032,175.236z M68.915,201.768
				c0.872-2.269,1.402-4.541,1.599-6.811l2.614,0.709c0.775,0.284,0.727,0.521-0.145,0.71c-0.387,2.554-0.921,4.685-1.598,6.384
				L68.915,201.768z M80.391,185.596l1.744-1.277c1.743,1.703,3.051,3.313,3.923,4.824l-2.18,1.563l-1.017-1.563l-10.605,0.992
				c-0.292,0.475-0.534,0.566-0.726,0.285l-0.582-2.84h2.76l2.907-7.518l2.76,0.852c0.386,0.378,0.241,0.615-0.437,0.71l-2.76,5.957
				l5.521-0.281L80.391,185.596z M77.05,193.54c0.774,0.094,0.822,0.379,0.146,0.853v6.385c0,0.566,0.29,0.854,0.872,0.854h3.197
				c0.872,0,1.208-0.896,1.017-2.693l2.76,0.711c0.194,2.838-0.679,4.256-2.616,4.256H77.05c-1.55,0-2.324-0.805-2.324-2.412v-7.944
				h2.324V193.54z M79.52,190.418c1.063,1.135,2.034,2.506,2.905,4.114l-2.324,1.561c-0.776-1.702-1.695-3.073-2.761-4.114
				L79.52,190.418z M87.073,185.452c-3.486-2.556-6.053-6.054-7.7-10.5l2.616-0.994c1.937,4.163,4.359,7.19,7.264,9.082
				L87.073,185.452z M87.073,201.061c-0.968-1.892-2.18-3.785-3.632-5.679l2.18-1.562c1.355,1.516,2.662,3.406,3.921,5.679
				L87.073,201.061z"/>
			<path fill="#999999" d="M130.15,184.174l-1.454,3.264c-6.588-2.36-11.767-6.102-15.544-11.209
				c-1.744,3.502-4.167,6.293-7.265,8.371h16.125v2.698h-16.271v-2.556c-1.743,1.42-3.777,2.648-6.102,3.689l-2.035-2.697
				c7.069-3.215,11.718-7.521,13.947-12.912l3.778,0.711c0.676,0.094,0.629,0.379-0.146,0.852
				C118.963,179.021,123.95,182.283,130.15,184.174z M106.033,204.748h-2.905v-14.047h21.647v13.622h-2.906v-1.563h-15.835
				L106.033,204.748L106.033,204.748z M106.033,200.064h15.835v-6.666h-15.835V200.064z"/>
			<path fill="#999999" d="M157.099,187.438c0.194,7.191-2.955,12.771-9.443,16.744l-2.469-2.695
				c5.714-3.022,8.571-7.28,8.571-12.771v-6.104h3.051c0.872,0.101,0.967,0.432,0.291,0.996v3.689
				c3.486-2.556,6.15-5.061,7.99-7.521l-23.68,0.854l-0.292-3.263l26.441-0.71l1.017-0.285l2.18,2.555
				c0.29,0.38,0.047,0.521-0.727,0.427c-2.906,3.688-6.392,7.146-10.459,10.356L157.099,187.438z"/>
			<path fill="#999999" d="M181.58,201.626c4.841-4.541,7.265-10.166,7.265-16.884v-6.387h3.05c0.873,0.188,0.968,0.564,0.292,1.136
				v5.108c0,7.94-2.567,14.234-7.7,18.866L181.58,201.626z M201.046,197.796c4.261-1.608,8.183-4.825,11.767-9.651l2.035,2.698
				c-3.681,4.918-8.331,8.466-13.947,10.644l-1.162,0.568l-2.324-1.705l0.292-0.707v-22.845h3.05
				c0.872,0.19,0.967,0.568,0.291,1.136L201.046,197.796L201.046,197.796z"/>
			<path fill="#999999" d="M223.783,196.805l6.102-0.143c3.487-7.378,6.149-14.898,7.99-22.561l3.341,1.135
				c0.873,0.563,0.775,0.994-0.291,1.275c-1.841,6.719-4.31,13.34-7.409,19.861l15.108-0.709c-2.034-2.646-3.632-4.587-4.793-5.813
				l2.906-1.986c3.291,3.498,6.439,7.615,9.443,12.344l-3.197,2.129l-2.324-3.689l-24.405,1.848c-0.583,0.941-1.019,0.941-1.308,0
				L223.783,196.805z"/>
			<path fill="#999999" d="M283.274,183.04h13.509v3.122h-13.366v2.554c0,7.001-3.099,12.3-9.297,15.892l-3.05-2.27
				c6.005-3.025,9.008-7.566,9.008-13.622v-2.554h-14.383v-3.122h14.237v-8.517h2.905c1.065,0.1,1.209,0.479,0.437,1.139V183.04
				L283.274,183.04z"/>
			<path fill="#999999" d="M308.628,191.553c10.167-4.162,17.867-10.025,23.097-17.595l2.761,2.271
				c0.772,0.568,0.436,0.992-1.019,1.276c-1.839,2.365-4.212,4.778-7.119,7.237v19.295h-3.34v-16.602
				c-3.393,2.558-7.358,4.875-11.913,6.953L308.628,191.553z"/>
			<path fill="#999999" d="M381.336,175.662v2.27h-6.973l1.453,2.836l-3.197,0.568l-1.307-3.404h-2.324
				c-0.583,0.944-1.258,1.844-2.033,2.695v1.846h13.655v6.383h-2.904v-4.109h-23.972v4.109h-2.905v-6.383h0.583l-1.89-2.271
				c2.809-2.177,4.794-4.772,5.954-7.804l3.053,0.283c0.481,0.284,0.386,0.565-0.292,0.854c-0.484,0.945-0.87,1.654-1.16,2.128
				h8.134v2.271h-4.502l1.307,2.838l-3.196,0.709l-1.019-3.547h-1.888c-1.067,1.517-2.469,3.026-4.212,4.541h12.35v-1.562
				l-0.583-0.711c2.521-2.364,4.115-4.968,4.795-7.804l3.053,0.283c0.385,0.281,0.292,0.564-0.292,0.854
				c-0.39,0.945-0.727,1.654-1.017,2.128L381.336,175.662L381.336,175.662z M375.09,186.868v7.379h-16.125v1.846h17.578v8.654
				h-2.904v-0.851h-14.674v1.135h-2.905v-18.163H375.09L375.09,186.868z M372.185,189.141h-13.22v2.838h13.22V189.141z
				 M373.639,198.363h-14.674v3.263h14.674V198.363z"/>
			<path fill="#999999" d="M403.202,196.377c-3.777,1.324-7.313,2.411-10.604,3.266c-0.293,0.758-0.582,0.897-0.873,0.424
				l-1.016-3.262l5.082-0.994v-7.805h-3.922v-2.695h3.922v-7.521h-4.357v-2.694h11.623v2.694H398.7v7.521h3.92v2.695h-3.92v7.096
				c0.771-0.095,2.178-0.473,4.211-1.135L403.202,196.377z M414.678,189.707v4.113h8.137v2.695h-8.137v4.4h9.59v2.691h-23.102
				v-2.691h11.043v-4.4h-7.848v-2.695h7.848v-4.113h-5.232v1.846h-2.469v-17.451h18.018v16.883h-2.475v-1.273L414.678,189.707
				L414.678,189.707z M412.209,180.913v-4.542h-5.232v4.542H412.209z M412.209,183.182h-5.232v4.26h5.232V183.182z M420.051,176.371
				h-5.373v4.542h5.373V176.371z M420.051,183.182h-5.373v4.26h5.373V183.182z"/>
			<path fill="#999999" d="M437.125,179.21l3.195-1.704c1.645,1.989,3.391,4.73,5.229,8.23l-3.342,1.844
				C440.465,183.893,438.77,181.104,437.125,179.21z M458.625,177.506l3.633,0.569c0.871,0.188,0.822,0.614-0.146,1.276
				c-0.582,6.056-2.375,11.157-5.373,15.321c-2.229,3.12-6.393,6.243-12.494,9.362l-2.617-2.557
				c5.523-2.459,9.688-5.533,12.494-9.224C456.348,189.331,457.85,184.413,458.625,177.506z"/>
			<path fill="#999999" d="M485.288,192.544h-3.344v-16.03h3.195c0.969,0.094,1.02,0.479,0.146,1.137v14.896L485.288,192.544
				L485.288,192.544z M500.249,189.424c0,7.096-3.391,12.203-10.168,15.324l-2.906-2.41c6.396-2.838,9.635-7.189,9.732-13.054
				v-14.188h3.051c0.967,0.188,1.064,0.567,0.291,1.137V189.424L500.249,189.424z"/>
			<path fill="#999999" d="M546.229,200.775h-26.148v-2.695h15.689l0.291-10.645h-11.912v-2.693h14.816l-0.291,13.338h7.557v2.695
				H546.229z"/>
			<path fill="#999999" d="M558.797,190.273v-3.119h32.396v3.119H558.797z"/>
			<path fill="#999999" d="M613.061,187.011l-2.326,2.981c-2.906-2.08-5.326-3.596-7.266-4.542l2.178-2.979
				C608.073,183.704,610.542,185.218,613.061,187.011z M606.667,199.643c10.557-2.271,18.498-7.615,23.826-16.033l2.615,2.557
				c-4.939,7.757-12.592,13.245-22.955,16.46c-0.289,1.136-0.775,1.183-1.453,0.144L606.667,199.643z M617.125,178.643l-2.033,2.979
				c-2.615-1.794-5.039-3.312-7.266-4.539l1.889-2.979C612.333,175.52,614.801,177.036,617.125,178.643z"/>
			<path fill="#999999" d="M650.032,201.91v-2.696h14.816v-5.961h-13.945v-2.694h13.945v-5.676h-14.816v-2.695h17.725v21.283h-2.906
				v-1.562L650.032,201.91L650.032,201.91z"/>
			<path fill="#999999" d="M716.788,185.452c-5.133,10.405-13.754,15.892-25.857,16.458c-0.479,1.229-0.971,1.324-1.449,0.283
				l-1.16-3.688c12.588-0.282,21.063-5.342,25.424-15.181L716.788,185.452z M688.893,179.634l2.473-2.979
				c2.031,1.229,4.596,3.268,7.697,6.104l-2.762,2.695C693.688,183.09,691.217,181.148,688.893,179.634z"/>
		</g>
		<g>
			<polygon fill="#2963AE" points="99.936,22.378 45.307,53.876 45.307,68.641 87.632,93.249 87.632,142.466 99.936,149.848 
				155.549,117.857 155.549,53.876 			"/>
			<polygon fill="#00B9BC" points="16.761,101.124 16.761,134.1 45.307,150.339 73.359,134.1 73.359,101.124 45.307,85.375 			"/>
		</g>
		<g>
			<g>
				<path fill="#24333A" d="M299.448,141.557h-14.39L285.17,34.75l14.278-9.189V141.557z"/>
				<path fill="#24333A" d="M377.586,141.557h-14.391v-2.24c-5.859,0.608-11.683,1.189-17.465,1.742
					c-7.03,0.664-12.854,0.996-17.469,0.996c-7.906,0-11.861-2.988-11.861-8.965v-72.3h14.39v70.89l32.405-0.664V60.79h14.391
					V141.557L377.586,141.557z"/>
				<path fill="#24333A" d="M500.983,141.557h-14.609V70.668l-31.855,0.664v70.225h-14.502V70.668l-31.854,0.664v70.225h-14.609
					V60.79h14.609v2.241c5.713-0.553,11.424-1.134,17.137-1.743c6.957-0.664,12.705-0.996,17.246-0.996
					c4.467,0,7.762,1.024,9.887,3.071c6.152-0.608,12.271-1.245,18.35-1.909c7.979-0.774,14.02-1.162,18.125-1.162
					c8.055,0,12.084,3.017,12.084,9.048v72.217H500.983z"/>
				<path fill="#24333A" d="M578.241,141.557h-14.609V70.668l-32.186,0.664v70.225h-14.609V60.79h14.609v2.241
					c5.713-0.553,11.461-1.134,17.246-1.743c7.029-0.664,12.814-0.996,17.355-0.996c8.129,0,12.193,3.017,12.193,9.048V141.557
					L578.241,141.557z"/>
				<path fill="#24333A" d="M653.743,132.177c0,6.255-4.104,9.38-12.305,9.38h-35.15c-8.203,0-12.305-3.125-12.305-9.38V70.17
					c0-6.253,4.102-9.38,12.305-9.38h35.15c8.201,0,12.305,3.127,12.305,9.38v29.053l-4.943,3.901h-40.645v29.219h31.416v-14.774
					h14.172V132.177L653.743,132.177z M639.571,94.325V70.004h-31.416v24.321H639.571z"/>
				<path fill="#24333A" d="M708.483,141.557h-20.764c-8.201,0-12.303-3.125-12.303-9.38V70.502h-12.855V60.79h12.855V42.273
					l14.391,8.438V60.79h18.676v9.712h-18.676v61.344h18.676V141.557L708.483,141.557z"/>
			</g>
			<g>
				<path fill="#24333A" d="M268.106,141.059h-14.39v-2.24c-5.786,0.608-11.572,1.189-17.356,1.742
					c-7.179,0.664-12.927,0.996-17.247,0.996c-7.983,0-11.974-2.988-11.974-8.965v-29.468c0-6.197,4.136-9.297,12.413-9.297h34.382
					V69.506h-31.417l0,0l-14.171,8.896v-8.73c0-6.253,4.101-9.38,12.303-9.38H255.8c8.201,0,12.304,3.127,12.304,9.38v71.387
					H268.106L268.106,141.059z M253.936,131.016V102.46h-32.625v29.054L253.936,131.016z"/>
				<path fill="#24333A" d="M285.17,25.224"/>
				<path fill="#24333A" d="M301.134,25.224"/>
			</g>
		</g>
		<path fill="none" stroke="#EF209C" stroke-miterlimit="10" d="M170.875,100.139"/>
		<path fill="none" stroke="#EF209C" stroke-miterlimit="10" d="M740.243,79.875"/>
	</g>
	<g id="レイヤー_2" display="inline">
		<path fill="#2963AE" d="M252.767,36.813l22.05-12.166V139.6H252.79v-9.274c-4.299,4.092-8.61,7.032-12.936,8.84
			c-4.326,1.803-9.015,2.701-14.064,2.701c-11.335,0-21.142-4.396-29.417-13.189c-8.273-8.788-12.41-19.729-12.41-32.8
			c0-13.556,4.002-24.661,12.008-33.324c8.006-8.659,17.729-12.99,29.175-12.99c5.265,0,10.207,0.999,14.827,2.99
			c4.621,1.991,8.893,4.977,12.814,8.957L252.767,36.813z M229.634,69.886c-6.811,0-12.465,2.407-16.969,7.223
			c-4.503,4.81-6.755,10.984-6.755,18.514c0,7.589,2.29,13.826,6.874,18.72c4.583,4.896,10.226,7.343,16.927,7.343
			c6.916,0,12.654-2.408,17.209-7.222c4.556-4.813,6.837-11.118,6.837-18.922c0-7.636-2.279-13.818-6.837-18.553
			C242.366,72.253,236.602,69.886,229.634,69.886z"/>
		<path fill="#2963AE" d="M279.792,20.801l22.027-11.428V139.6h-22.027V20.801z"/>
		<path fill="#2963AE" d="M306.877,51.811h22.271v42.28c0,8.229,0.564,13.945,1.696,17.146c1.131,3.203,2.953,5.688,5.46,7.471
			c2.507,1.771,5.595,2.654,9.263,2.654c3.666,0,6.778-0.865,9.34-2.615c2.562-1.752,4.463-4.313,5.705-7.709
			c0.914-2.521,1.375-7.934,1.375-16.215v-43.01h22.027v37.197c0,15.329-1.211,25.819-3.631,31.47
			c-2.961,6.891-7.313,12.172-13.071,15.857c-5.755,3.688-13.069,5.525-21.944,5.525c-9.629,0-17.416-2.152-23.358-6.453
			c-5.941-4.305-10.126-10.297-12.548-17.994c-1.721-5.326-2.582-15.008-2.582-29.046L306.877,51.811L306.877,51.811z"/>
		<path fill="#2963AE" d="M389.436,51.811h22.025v10.088c3.768-4.146,7.955-7.233,12.561-9.28c4.6-2.042,9.617-3.065,15.057-3.065
			c5.488,0,10.439,1.346,14.854,4.035c4.416,2.691,7.973,6.616,10.658,11.78c3.498-5.164,7.789-9.088,12.879-11.78
			c5.086-2.689,10.646-4.035,16.68-4.035c6.238,0,11.734,1.452,16.475,4.362c4.732,2.905,8.145,6.697,10.217,11.376
			c2.074,4.68,3.111,12.291,3.111,22.834V139.6H501.76V95.058c0-9.948-1.238-16.688-3.711-20.207
			c-2.475-3.524-6.188-5.286-11.135-5.286c-3.762,0-7.139,1.078-10.127,3.227c-2.99,2.153-5.201,5.125-6.654,8.916
			c-1.451,3.791-2.176,9.883-2.176,18.28v39.618h-22.189V97.078c0-7.853-0.584-13.543-1.738-17.064
			c-1.16-3.524-2.9-6.15-5.217-7.873c-2.316-1.722-5.127-2.582-8.41-2.582c-3.672,0-6.998,1.09-9.992,3.269
			c-2.996,2.18-5.225,5.232-6.713,9.156c-1.482,3.928-2.229,10.115-2.229,18.559v39.055h-22.025L389.436,51.811L389.436,51.811z"/>
		<path fill="#2963AE" d="M528.391,51.811h22.029v8.999c4.99-4.212,9.52-7.14,13.574-8.789c4.053-1.645,8.207-2.468,12.447-2.468
			c8.699,0,16.084,3.04,22.15,9.123c5.105,5.164,7.654,12.803,7.654,22.915V139.6h-21.787v-38.44
			c0-10.477-0.469-17.438-1.414-20.872c-0.934-3.441-2.57-6.058-4.904-7.859c-2.338-1.806-5.221-2.706-8.646-2.706
			c-4.449,0-8.279,1.491-11.467,4.473c-3.195,2.987-5.404,7.106-6.646,12.371c-0.645,2.74-0.965,8.678-0.965,17.812V139.6h-22.029
			L528.391,51.811L528.391,51.811z"/>
		<path fill="#2963AE" d="M700.631,102.078H629.87c1.021,6.242,3.754,11.205,8.189,14.89c4.441,3.685,10.1,5.529,16.982,5.529
			c8.229,0,15.305-2.877,21.223-8.64l18.557,8.716c-4.625,6.563-10.166,11.418-16.621,14.563c-6.455,3.146-14.121,4.72-22.996,4.72
			c-13.77,0-24.988-4.347-33.645-13.026c-8.66-8.693-12.99-19.572-12.99-32.64c0-13.394,4.316-24.515,12.951-33.361
			c8.637-8.846,19.457-13.275,32.477-13.275c13.822,0,25.064,4.43,33.727,13.275c8.656,8.848,12.988,20.532,12.988,35.057
			L700.631,102.078z M678.606,84.73c-1.459-4.893-4.324-8.875-8.607-11.941c-4.285-3.066-9.256-4.599-14.91-4.599
			c-6.145,0-11.533,1.723-16.162,5.164c-2.906,2.153-5.604,5.945-8.086,11.376H678.606z"/>
		<path fill="#2963AE" d="M706.256,33.333l22.025,11.428v7.05h13.064v18.967h-13.064v68.82h-22.025V70.774h-11.297V51.811h11.297
			V33.333z"/>
		<g>
			<path fill="#2963AE" d="M751.301,129.063c1.234,0.396,1.969,1.59,2.348,3.326c0.502,2.305,0.855,3.704,1.17,4.313h-1.803
				c-0.246-0.461-0.604-1.863-1.021-3.854c-0.457-2.214-1.338-3.201-3.225-3.201h-1.945v7.058h-1.736v-15.718
				c0.982-0.211,2.365-0.336,3.621-0.336c2.07,0,3.428,0.42,4.371,1.3c0.754,0.688,1.193,1.774,1.193,2.971
				c0,2.115-1.273,3.479-2.973,4.084V129.063L751.301,129.063z M748.875,128.309c2.217,0,3.643-1.254,3.643-3.181
				c0-2.364-1.779-3.101-3.727-3.101c-0.939,0-1.613,0.087-1.969,0.168v6.111h2.053V128.309z"/>
		</g>
		<circle fill="none" stroke="#2963AE" stroke-miterlimit="10" cx="749.293" cy="128.843" r="11.699"/>
		<g>
			<polygon fill="#2963AE" points="95.185,6.767 36.927,40.357 36.927,56.103 82.064,82.345 82.064,134.831 95.185,142.704 
				154.493,108.589 154.493,40.357 			"/>
			<polygon fill="#00B9BC" points="6.485,90.744 6.485,125.909 36.927,143.229 66.843,125.909 66.843,90.744 36.927,73.948 			"/>
		</g>
		<g>
			<path fill="#878787" d="M39.076,185.27l5-0.153l-0.781-2.347l2.344-0.778c0.938,1.875,1.719,4.063,2.344,6.563l-2.656,0.78
				l-0.625-2.188l-3.125,0.313v16.875h-3.125V187.93l-4.531,0.471c-0.522,0.938-0.835,0.888-0.938-0.155l-0.625-2.656h3.125
				l2.5-3.438c-1.355-1.563-3.125-2.969-5.313-4.219l1.875-2.5l1.094,0.625l4.688-7.5l3.125,1.563
				c0.313,0.211,0.051,0.418-0.781,0.625l-4.844,7.03l2.031,1.72l4.063-6.406l2.813,1.563c0.313,0.211,0.051,0.418-0.781,0.625
				L39.076,185.27z M36.576,192.77c0,2.604-0.366,5.522-1.094,8.75l-2.969-1.095c0.833-3.229,1.25-6.301,1.25-9.219l2.969,0.625
				C37.357,192.042,37.304,192.354,36.576,192.77z M44.545,198.552c-0.313-2.604-0.938-4.844-1.875-6.719l2.188-0.625
				c1.145,1.459,1.926,3.646,2.344,6.563L44.545,198.552z M54.232,171.677c0.938,0.419,0.884,0.73-0.156,0.938
				c-1.355,3.438-3.335,6.771-5.938,10l-2.5-2.031c2.395-2.707,4.321-6.039,5.781-10L54.232,171.677z M46.576,200.895
				c0.938-2.5,1.509-5,1.719-7.5l2.813,0.78c0.833,0.313,0.781,0.574-0.156,0.781c-0.417,2.813-0.991,5.155-1.719,7.03
				L46.576,200.895z M58.92,183.083l1.875-1.406c1.875,1.875,3.281,3.646,4.219,5.313l-2.344,1.719l-1.094-1.719l-11.406,1.094
				c-0.313,0.521-0.574,0.625-0.781,0.313l-0.625-3.125h2.969l3.125-8.275l2.969,0.938c0.415,0.418,0.259,0.678-0.469,0.779
				l-2.969,6.563l5.938-0.313L58.92,183.083z M55.326,191.833c0.833,0.104,0.884,0.418,0.156,0.938v7.027
				c0,0.625,0.313,0.938,0.938,0.938h3.438c0.938,0,1.301-0.987,1.094-2.971l2.969,0.78c0.208,3.125-0.73,4.688-2.813,4.688h-5.781
				c-1.667,0-2.5-0.887-2.5-2.656v-8.75L55.326,191.833L55.326,191.833z M57.982,188.395c1.145,1.25,2.188,2.765,3.125,4.53
				l-2.5,1.72c-0.835-1.875-1.824-3.384-2.969-4.528L57.982,188.395z M66.107,182.927c-3.75-2.813-6.511-6.666-8.281-11.563
				l2.813-1.095c2.083,4.586,4.688,7.918,7.813,10L66.107,182.927z M66.107,200.111c-1.042-2.079-2.344-4.163-3.906-6.25
				l2.344-1.719c1.458,1.668,2.864,3.75,4.219,6.25L66.107,200.111z"/>
			<path fill="#878787" d="M112.437,181.52l-1.563,3.597c-7.085-2.604-12.656-6.722-16.719-12.347
				c-1.875,3.854-4.48,6.933-7.813,9.222h17.344v2.971h-17.5v-2.813c-1.875,1.563-4.063,2.918-6.563,4.063l-2.188-2.971
				c7.603-3.539,12.603-8.279,15-14.222l4.063,0.78c0.728,0.104,0.676,0.418-0.156,0.938
				C100.406,175.843,105.77,179.438,112.437,181.52z M86.5,204.177h-3.125v-15.469h23.281v15h-3.125v-1.722H86.5V204.177z
				 M86.5,199.02h17.031v-7.345H86.5V199.02z"/>
			<path fill="#878787" d="M141.424,185.111c0.208,7.921-3.179,14.063-10.156,18.438l-2.656-2.969
				c6.145-3.332,9.219-8.021,9.219-14.063V179.8h3.281c0.938,0.104,1.04,0.47,0.313,1.095v4.063c3.75-2.813,6.614-5.572,8.594-8.281
				l-25.469,0.938l-0.313-3.594l28.438-0.781l1.094-0.313l2.344,2.813c0.313,0.418,0.051,0.574-0.781,0.469
				c-3.125,4.063-6.875,7.867-11.25,11.406L141.424,185.111z"/>
			<path fill="#878787" d="M167.754,200.736c5.208-5,7.813-11.194,7.813-18.594v-7.031h3.281c0.938,0.212,1.04,0.625,0.313,1.25
				v5.625c0,8.75-2.761,15.681-8.281,20.781L167.754,200.736z M188.691,196.52c4.583-1.771,8.801-5.313,12.656-10.625l2.188,2.972
				c-3.96,5.418-8.96,9.321-15,11.721l-1.25,0.625l-2.5-1.875l0.313-0.778V173.4h3.281c0.938,0.209,1.04,0.625,0.313,1.25
				L188.691,196.52L188.691,196.52z"/>
			<path fill="#878787" d="M213.146,195.427l6.563-0.155c3.75-8.125,6.614-16.403,8.594-24.845l3.594,1.25
				c0.938,0.625,0.833,1.095-0.313,1.406c-1.98,7.396-4.636,14.688-7.969,21.875l16.25-0.781c-2.188-2.916-3.906-5.051-5.156-6.405
				l3.125-2.188c3.539,3.854,6.926,8.387,10.156,13.594l-3.438,2.346l-2.5-4.063l-26.25,2.028c-0.625,1.043-1.094,1.043-1.406,0
				L213.146,195.427z"/>
			<path fill="#878787" d="M277.132,180.27h14.53v3.438h-14.375v2.813c0,7.709-3.334,13.543-10,17.5l-3.28-2.5
				c6.458-3.332,9.688-8.332,9.688-15v-2.813h-15.47v-3.438h15.313v-9.375h3.125c1.145,0.104,1.301,0.522,0.469,1.25V180.27
				L277.132,180.27z"/>
			<path fill="#878787" d="M304.401,189.645c10.938-4.582,19.219-11.039,24.844-19.375l2.969,2.5
				c0.832,0.625,0.469,1.097-1.094,1.405c-1.98,2.604-4.531,5.263-7.656,7.97v21.25h-3.594v-18.278
				c-3.648,2.813-7.918,5.364-12.813,7.653L304.401,189.645z"/>
			<path fill="#878787" d="M382.604,172.145v2.5h-7.5l1.563,3.125l-3.438,0.625l-1.404-3.75h-2.5
				c-0.625,1.043-1.354,2.03-2.188,2.972v2.028h14.688v7.03h-3.125v-4.53h-25.781v4.53h-3.125v-7.03h0.625l-2.03-2.5
				c3.021-2.396,5.155-5.259,6.405-8.595l3.281,0.313c0.521,0.313,0.416,0.625-0.313,0.938c-0.521,1.045-0.938,1.824-1.25,2.346
				h8.75v2.5h-4.844l1.406,3.125l-3.438,0.779l-1.095-3.904h-2.03c-1.146,1.668-2.654,3.334-4.529,5h13.279v-1.721l-0.625-0.779
				c2.707-2.604,4.426-5.471,5.155-8.596l3.281,0.313c0.416,0.313,0.313,0.625-0.313,0.938c-0.418,1.044-0.781,1.824-1.094,2.345
				h12.19V172.145L382.604,172.145L382.604,172.145z M375.886,184.486v8.125h-17.345v2.031h18.906v9.528h-3.125v-0.938h-15.781v1.25
				h-3.125v-20h20.47V184.486z M372.761,186.986h-14.22v3.125h14.22V186.986z M374.323,197.145h-15.781v3.597h15.781V197.145z"/>
			<path fill="#878787" d="M406.122,194.958c-4.063,1.459-7.865,2.653-11.404,3.594c-0.313,0.834-0.625,0.99-0.938,0.47
				l-1.094-3.595l5.469-1.094v-8.597h-4.219v-2.969h4.219v-8.281h-4.688v-2.969h12.5v2.969h-4.688v8.281h4.219v2.969h-4.219v7.813
				c0.83-0.104,2.344-0.521,4.525-1.25L406.122,194.958z M418.465,187.611v4.531h8.75v2.969h-8.75v4.847h10.314v2.969h-24.852
				v-2.969h11.875v-4.847h-8.438v-2.969h8.438v-4.531h-5.625v2.031h-2.652v-19.222h19.377v18.597h-2.656v-1.406H418.465z
				 M415.809,177.927v-5h-5.625v5H415.809z M415.809,180.427h-5.625v4.688h5.625V180.427z M424.247,172.927h-5.779v5h5.779V172.927z
				 M424.247,180.427h-5.779v4.688h5.779V180.427z"/>
			<path fill="#878787" d="M442.608,176.052l3.438-1.875c1.771,2.188,3.646,5.209,5.625,9.063l-3.594,2.031
				C446.202,181.208,444.377,178.136,442.608,176.052z M465.733,174.177l3.906,0.625c0.938,0.209,0.885,0.679-0.156,1.406
				c-0.625,6.668-2.555,12.293-5.781,16.875c-2.396,3.438-6.875,6.875-13.438,10.313l-2.813-2.813
				c5.938-2.707,10.414-6.097,13.438-10.156C463.284,187.198,464.899,181.782,465.733,174.177z"/>
			<path fill="#878787" d="M494.407,190.736h-3.594v-17.653h3.438c1.041,0.104,1.096,0.521,0.156,1.25V190.736z M510.5,187.302
				c0,7.813-3.646,13.438-10.939,16.875l-3.125-2.655c6.875-3.125,10.363-7.916,10.471-14.375v-15.625h3.279
				c1.041,0.209,1.146,0.625,0.314,1.25V187.302z"/>
			<path fill="#878787" d="M559.956,199.802h-28.125v-2.969h16.875l0.313-11.722h-12.813v-2.969h15.938l-0.313,14.688h8.125V199.802
				z"/>
			<path fill="#878787" d="M573.473,188.236V184.8h34.844v3.438h-34.844V188.236z"/>
			<path fill="#878787" d="M631.834,184.645l-2.5,3.28c-3.125-2.289-5.73-3.957-7.814-5l2.346-3.28
				C626.469,181.001,629.125,182.667,631.834,184.645z M624.959,198.552c11.354-2.5,19.895-8.385,25.625-17.655l2.814,2.813
				c-5.314,8.543-13.551,14.586-24.689,18.125c-0.314,1.25-0.834,1.301-1.564,0.156L624.959,198.552z M636.209,175.427l-2.189,3.281
				c-2.813-1.979-5.418-3.646-7.813-5l2.031-3.281C631.053,171.986,633.709,173.657,636.209,175.427z"/>
			<path fill="#878787" d="M671.602,201.052v-2.969h15.938v-6.563h-15v-2.97h15v-6.25h-15.938v-2.969h19.063v23.438h-3.125v-1.723
				h-15.938V201.052z"/>
			<path fill="#878787" d="M743.401,182.927c-5.521,11.459-14.793,17.5-27.813,18.125c-0.521,1.354-1.043,1.457-1.563,0.313
				l-1.25-4.063c13.539-0.313,22.646-5.885,27.344-16.719L743.401,182.927z M713.401,176.52l2.656-3.278
				c2.188,1.354,4.945,3.596,8.281,6.721l-2.969,2.972C718.557,180.323,715.901,178.188,713.401,176.52z"/>
		</g>
		<path fill="none" stroke="#DB1935" stroke-miterlimit="10" d="M512.227-163.003"/>
	</g>
</g>
<path display="none" fill="#485359" d="M276.606,147.822H256.68v-2.905c-4.731,0.664-9.462,1.328-14.193,1.992
	c-6.187,0.83-10.889,1.245-14.103,1.245c-7.583,0-11.373-3.403-11.373-10.211v-30.214c0-6.917,3.913-10.376,11.737-10.376h28.114
	V78.096h-19.926v11.953h-18.834V74.36c0-6.917,3.913-10.376,11.737-10.376h35.211c7.703,0,11.555,3.459,11.555,10.376
	L276.606,147.822L276.606,147.822z M256.862,132.715v-22.494h-19.926v23.158L256.862,132.715z"/>
<path fill="#2963AE" d="M253.417,90.331l22.029-43.581v127.195h-22.027v-9.932c-4.299,4.381-8.61,7.53-12.936,9.463
	c-4.326,1.933-9.015,2.894-14.064,2.894c-11.334,0-21.142-4.706-29.416-14.121c-8.273-9.41-12.41-21.124-12.41-35.121
	c0-14.514,4.002-26.403,12.008-35.679c8.006-9.271,17.729-13.908,29.175-13.908c5.265,0,10.207,1.07,14.827,3.201
	C245.224,82.874,249.496,86.07,253.417,90.331L253.417,90.331z M230.264,102.695c-6.812,0-12.466,2.419-16.97,7.262
	c-4.502,4.836-6.754,11.042-6.754,18.609c0,7.629,2.289,13.897,6.873,18.817c4.584,4.925,10.227,7.384,16.928,7.384
	c6.916,0,12.654-2.42,17.209-7.262c4.556-4.839,6.837-11.175,6.837-19.021c0-7.678-2.279-13.891-6.837-18.649
	C242.996,105.075,237.232,102.695,230.264,102.695z"/>
<path fill="#2963AE" d="M282.421,46.75h21.915l0.113,127.236h-22.027V47.014L282.421,46.75z"/>
<path fill="#2963AE" d="M309.507,81.562h22.271v44.512c0,8.664,0.564,14.681,1.696,18.051c1.133,3.373,2.953,5.986,5.46,7.861
	c2.509,1.865,5.595,2.8,9.263,2.8c3.666,0,6.778-0.915,9.34-2.759s4.463-4.543,5.705-8.115c0.914-2.655,1.375-8.354,1.375-17.071
	V81.562h22.026v39.161c0,16.139-1.211,27.183-3.631,33.131c-2.961,7.252-7.313,12.813-13.07,16.694
	c-5.757,3.882-13.071,5.819-21.946,5.819c-9.629,0-17.416-2.268-23.358-6.797c-5.941-4.53-10.126-10.838-12.548-18.943
	c-1.721-5.607-2.582-15.801-2.582-30.581L309.507,81.562L309.507,81.562z"/>
<path fill="#2963AE" d="M392.065,81.562h22.025v10.621c3.768-4.365,7.955-7.615,12.561-9.77c4.6-2.148,9.617-3.226,15.057-3.226
	c5.488,0,10.439,1.417,14.855,4.248c4.414,2.833,7.969,6.965,10.656,12.401c3.498-5.437,7.789-9.568,12.879-12.401
	c5.086-2.83,10.646-4.248,16.68-4.248c6.238,0,11.734,1.527,16.471,4.591c4.736,3.059,8.146,7.051,10.217,11.978
	c2.074,4.927,3.111,12.939,3.111,24.039v54.191h-22.189v-46.896c0-10.473-1.234-17.567-3.713-21.272
	c-2.475-3.709-6.186-5.565-11.135-5.565c-3.762,0-7.137,1.136-10.127,3.397c-2.99,2.267-5.201,5.396-6.654,9.388
	c-1.451,3.991-2.176,10.405-2.176,19.245v41.709h-22.189v-44.773c0-8.268-0.586-14.258-1.736-17.964
	c-1.16-3.71-2.9-6.476-5.219-8.289c-2.314-1.813-5.129-2.718-8.408-2.718c-3.672,0-6.998,1.146-9.992,3.441
	c-2.996,2.295-5.229,5.508-6.713,9.64c-1.482,4.135-2.23,10.649-2.23,19.539v41.118h-22.023V81.562H392.065z"/>
<path fill="#2963AE" d="M531.022,81.562h22.027v9.474c4.99-4.435,9.52-7.518,13.574-9.253c4.053-1.732,8.207-2.598,12.447-2.598
	c8.705,0,16.084,3.201,22.152,9.604c5.105,5.435,7.654,13.479,7.654,24.125v61.072H587.09v-40.476
	c0-11.028-0.469-18.354-1.414-21.973c-0.934-3.623-2.566-6.379-4.9-8.272c-2.342-1.902-5.225-2.85-8.652-2.85
	c-4.449,0-8.277,1.568-11.467,4.709c-3.195,3.146-5.404,7.48-6.646,13.021c-0.645,2.887-0.965,9.14-0.965,18.752v37.084H531.02
	v-92.42H531.022z"/>
<path fill="#2963AE" d="M704.26,134.482h-70.762c1.02,6.572,3.754,11.797,8.188,15.678c4.441,3.88,10.102,5.82,16.982,5.82
	c8.23,0,15.305-3.027,21.223-9.097l18.559,9.177c-4.625,6.908-10.166,12.021-16.621,15.332c-6.455,3.313-14.121,4.969-22.996,4.969
	c-13.77,0-24.988-4.575-33.645-13.717c-8.66-9.151-12.99-20.606-12.99-34.364c0-14.101,4.314-25.811,12.951-35.121
	c8.637-9.314,19.457-13.976,32.477-13.976c13.822,0,25.064,4.664,33.73,13.976c8.652,9.315,12.984,21.614,12.984,36.907
	L704.26,134.482z M682.235,116.22c-1.459-5.151-4.324-9.344-8.607-12.569c-4.285-3.229-9.256-4.842-14.91-4.842
	c-6.145,0-11.533,1.814-16.162,5.437c-2.904,2.267-5.604,6.259-8.086,11.978L682.235,116.22L682.235,116.22z"/>
<path display="none" fill="#2963AE" d="M704.729,35.625L726.905,48l0.006,8.317h13.072v18.967h-13.072v68.821h-22.025V75.28h-11.297
	V56.316h11.297L704.729,35.625z"/>
<polygon fill="#2963AE" points="103.829,57.712 53.443,86.764 53.443,100.381 92.481,123.078 92.481,168.473 103.829,175.281 
	155.123,145.775 155.123,86.764 "/>
<polygon fill="#00B9BC" points="27.115,130.341 27.115,160.756 53.443,175.734 79.317,160.756 79.317,130.341 53.443,115.816 "/>
<g display="none">
	<path display="inline" fill="#878787" d="M42.706,189.775l5-0.156l-0.781-2.344l2.344-0.781c0.938,1.875,1.719,4.064,2.344,6.564
		l-2.656,0.778l-0.625-2.188l-3.125,0.313v16.875h-3.125v-16.403l-4.531,0.469c-0.522,0.938-0.835,0.887-0.938-0.156l-0.625-2.656
		h3.125l2.5-3.438c-1.355-1.563-3.125-2.969-5.313-4.219l1.875-2.5l1.094,0.625l4.688-7.5l3.125,1.563
		c0.313,0.211,0.051,0.418-0.781,0.625l-4.844,7.031l2.031,1.719l4.063-6.406l2.813,1.563c0.313,0.211,0.051,0.418-0.781,0.625
		L42.706,189.775z M40.206,197.275c0,2.604-0.366,5.521-1.094,8.75l-2.969-1.094c0.833-3.229,1.25-6.304,1.25-9.222l2.969,0.625
		C40.987,196.549,40.934,196.861,40.206,197.275z M48.175,203.059c-0.313-2.604-0.938-4.844-1.875-6.719l2.188-0.625
		c1.145,1.459,1.926,3.646,2.344,6.563L48.175,203.059z M57.862,176.184c0.938,0.418,0.884,0.73-0.156,0.938
		c-1.355,3.438-3.335,6.771-5.938,10l-2.5-2.031c2.395-2.707,4.321-6.039,5.781-10L57.862,176.184z M50.206,205.4
		c0.938-2.5,1.509-5,1.719-7.5l2.813,0.781c0.833,0.313,0.781,0.571-0.156,0.778c-0.417,2.813-0.991,5.156-1.719,7.031L50.206,205.4
		z M62.55,187.59l1.875-1.406c1.875,1.875,3.281,3.646,4.219,5.313l-2.344,1.719l-1.094-1.719L53.8,192.59
		c-0.313,0.521-0.574,0.625-0.781,0.313l-0.625-3.125h2.969l3.125-8.276l2.969,0.938c0.415,0.418,0.259,0.679-0.469,0.779
		l-2.969,6.563l5.938-0.313L62.55,187.59z M58.956,196.34c0.833,0.104,0.884,0.418,0.156,0.938v7.031
		c0,0.625,0.313,0.938,0.938,0.938h3.438c0.938,0,1.301-0.988,1.094-2.97l2.969,0.781c0.208,3.125-0.73,4.688-2.813,4.688h-5.781
		c-1.667,0-2.5-0.889-2.5-2.656v-8.75H58.956L58.956,196.34z M61.612,192.9c1.145,1.25,2.188,2.762,3.125,4.531l-2.5,1.719
		c-0.835-1.875-1.824-3.383-2.969-4.531L61.612,192.9z M69.737,187.434c-3.75-2.813-6.511-6.666-8.281-11.563l2.813-1.096
		c2.083,4.586,4.688,7.918,7.813,10L69.737,187.434z M69.737,204.619c-1.042-2.08-2.344-4.164-3.906-6.25l2.344-1.719
		c1.458,1.668,2.864,3.75,4.219,6.25L69.737,204.619z"/>
	<path display="inline" fill="#878787" d="M116.067,186.025l-1.563,3.594c-7.084-2.602-12.655-6.719-16.718-12.344
		c-1.875,3.854-4.48,6.93-7.813,9.219h17.344v2.971h-17.5v-2.814c-1.875,1.564-4.063,2.918-6.563,4.064l-2.188-2.971
		c7.603-3.539,12.603-8.279,15-14.219l4.063,0.781c0.728,0.104,0.676,0.418-0.156,0.938
		C104.037,180.35,109.4,183.943,116.067,186.025z M90.13,208.684h-3.125v-15.469h23.282v15h-3.125v-1.721H90.13V208.684z
		 M90.13,203.525h17.032v-7.344H90.13V203.525z"/>
	<path display="inline" fill="#878787" d="M145.054,189.619c0.208,7.92-3.18,14.064-10.156,18.439l-2.656-2.972
		c6.146-3.332,9.219-8.021,9.219-14.063v-6.719h3.281c0.938,0.104,1.041,0.469,0.313,1.094v4.063
		c3.75-2.813,6.614-5.569,8.594-8.278l-25.469,0.938l-0.313-3.594l28.438-0.781l1.094-0.313l2.345,2.813
		c0.313,0.418,0.051,0.574-0.781,0.469c-3.125,4.063-6.875,7.867-11.25,11.406L145.054,189.619z"/>
	<path display="inline" fill="#878787" d="M171.384,205.244c5.207-5,7.813-11.195,7.813-18.594v-7.031h3.281
		c0.938,0.211,1.04,0.625,0.313,1.25v5.625c0,8.75-2.761,15.68-8.28,20.781L171.384,205.244z M192.321,201.025
		c4.583-1.771,8.802-5.313,12.656-10.625l2.188,2.969c-3.961,5.418-8.961,9.324-15,11.721l-1.25,0.625l-2.5-1.875l0.313-0.781
		v-25.156h3.281c0.938,0.209,1.039,0.625,0.313,1.25L192.321,201.025L192.321,201.025z"/>
	<path display="inline" fill="#878787" d="M216.776,199.934l6.563-0.156c3.75-8.125,6.613-16.403,8.594-24.844l3.594,1.25
		c0.938,0.625,0.833,1.094-0.313,1.406c-1.98,7.396-4.637,14.688-7.969,21.875l16.25-0.781c-2.188-2.916-3.906-5.051-5.156-6.406
		l3.125-2.188c3.539,3.854,6.926,8.387,10.156,13.594l-3.438,2.344l-2.5-4.063l-26.25,2.029c-0.625,1.043-1.095,1.043-1.406,0
		L216.776,199.934z"/>
	<path display="inline" fill="#878787" d="M280.762,184.775h14.53v3.438h-14.375v2.813c0,7.709-3.334,13.543-10,17.5l-3.28-2.5
		c6.458-3.332,9.688-8.332,9.688-15v-2.813h-15.47v-3.438h15.313V175.4h3.125c1.145,0.104,1.301,0.521,0.469,1.25L280.762,184.775
		L280.762,184.775z"/>
	<path display="inline" fill="#878787" d="M308.031,194.15c10.938-4.582,19.219-11.039,24.844-19.375l2.969,2.5
		c0.832,0.625,0.469,1.094-1.094,1.406c-1.98,2.604-4.531,5.262-7.656,7.969v21.25H323.5v-18.281
		c-3.648,2.814-7.918,5.367-12.813,7.656L308.031,194.15z"/>
	<path display="inline" fill="#878787" d="M386.233,176.65v2.5h-7.5l1.563,3.125l-3.438,0.625l-1.406-3.75h-2.5
		c-0.625,1.043-1.354,2.031-2.188,2.969v2.031h14.688v7.031h-3.125v-4.531h-25.781v4.531h-3.125v-7.031h0.625l-2.03-2.5
		c3.021-2.396,5.155-5.258,6.405-8.594l3.281,0.313c0.521,0.314,0.416,0.625-0.313,0.939c-0.521,1.043-0.938,1.821-1.25,2.344h8.75
		v2.5h-4.844l1.406,3.125l-3.438,0.781l-1.095-3.906h-2.03c-1.146,1.668-2.654,3.334-4.529,5h13.279v-1.719l-0.625-0.781
		c2.707-2.604,4.428-5.469,5.155-8.594l3.281,0.313c0.416,0.313,0.313,0.625-0.313,0.938c-0.418,1.043-0.779,1.824-1.094,2.344
		h12.189v-0.002H386.233L386.233,176.65z M379.516,188.994v8.125h-17.345v2.031h18.906v9.531h-3.125v-0.938h-15.781v1.25h-3.125v-20
		L379.516,188.994L379.516,188.994z M376.391,191.494h-14.22v3.125h14.22V191.494z M377.953,201.65h-15.781v3.594h15.781V201.65z"/>
	<path display="inline" fill="#878787" d="M409.75,199.465c-4.063,1.459-7.865,2.654-11.404,3.594
		c-0.314,0.834-0.625,0.99-0.939,0.469l-1.094-3.594l5.469-1.094v-8.596h-4.219v-2.969h4.219v-8.281h-4.688v-2.969h12.5v2.969
		h-4.688v8.281h4.219v2.969h-4.219v7.814c0.832-0.104,2.344-0.521,4.527-1.25L409.75,199.465z M422.096,192.119v4.531h8.75v2.969
		h-8.75v4.846h10.313v2.969h-24.846v-2.969h11.875v-4.846H411v-2.969h8.438v-4.531h-5.625v2.031h-2.656v-19.219h19.375v18.594
		h-2.656v-1.406H422.096z M419.438,182.434v-5h-5.625v5H419.438z M419.438,184.934h-5.625v4.688h5.625V184.934z M427.875,177.434
		h-5.779v5h5.779V177.434z M427.875,184.934h-5.779v4.688h5.779V184.934z"/>
	<path display="inline" fill="#878787" d="M446.237,180.559l3.438-1.875c1.771,2.188,3.646,5.209,5.625,9.063l-3.594,2.03
		C449.831,185.715,448.006,182.643,446.237,180.559z M469.362,178.684l3.906,0.625c0.938,0.209,0.885,0.678-0.156,1.406
		c-0.625,6.668-2.553,12.293-5.781,16.875c-2.396,3.438-6.875,6.875-13.438,10.313l-2.813-2.813
		c5.938-2.707,10.414-6.096,13.438-10.156C466.913,191.705,468.528,186.289,469.362,178.684z"/>
	<path display="inline" fill="#878787" d="M498.036,195.244h-3.594V177.59h3.438c1.041,0.104,1.096,0.521,0.156,1.25V195.244z
		 M514.129,191.809c0,7.813-3.646,13.438-10.938,16.875l-3.125-2.656c6.875-3.125,10.357-7.916,10.469-14.375v-15.625h3.281
		c1.041,0.209,1.145,0.625,0.313,1.25V191.809z"/>
	<path display="inline" fill="#878787" d="M563.584,204.309h-28.125v-2.969h16.875l0.314-11.721h-12.814v-2.969h15.939
		l-0.314,14.688h8.125V204.309z"/>
	<path display="inline" fill="#878787" d="M577.102,192.744v-3.438h34.844v3.438H577.102z"/>
	<path display="inline" fill="#878787" d="M635.463,189.15l-2.5,3.281c-3.125-2.289-5.729-3.957-7.813-5l2.344-3.281
		C630.098,185.508,632.754,187.174,635.463,189.15z M628.588,203.059c11.354-2.5,19.896-8.385,25.625-17.656l2.814,2.813
		c-5.314,8.543-13.543,14.586-24.689,18.125c-0.313,1.25-0.834,1.302-1.563,0.156L628.588,203.059z M639.838,179.934l-2.188,3.281
		c-2.814-1.979-5.418-3.646-7.814-5l2.031-3.281C634.682,176.494,637.338,178.164,639.838,179.934z"/>
	<path display="inline" fill="#878787" d="M675.231,205.559v-2.969h15.938v-6.564h-15v-2.969h15v-6.25h-15.938v-2.969h19.063v23.438
		h-3.125v-1.719h-15.938V205.559z"/>
	<path display="inline" fill="#878787" d="M747.03,187.434c-5.521,11.459-14.793,17.5-27.813,18.125
		c-0.521,1.354-1.043,1.457-1.563,0.313l-1.25-4.063c13.539-0.313,22.648-5.885,27.344-16.719L747.03,187.434z M717.03,181.025
		l2.656-3.281c2.188,1.355,4.945,3.596,8.281,6.721l-2.969,2.969C722.186,184.83,719.53,182.693,717.03,181.025z"/>
</g>
<path fill="#2963AE" d="M746.557,175.146h-24.318c-8.105,0-12.156-3.83-12.156-11.496V100.2h-10.342V82.269h10.342V70.118
	l21.828-0.03v12.181h14.072V100.2h-14.072v57.015h14.646V175.146z"/>
<g id="レイヤー_2_2_" display="none">
	<g display="inline">
		<path fill="#2963AE" d="M245.622,62.337l22.735-23.5v103.199h-22.733v-9.468c-4.437,4.175-8.887,7.179-13.351,9.021
			c-4.464,1.839-9.303,2.756-14.515,2.756c-11.698,0-21.818-4.483-30.358-13.46c-8.538-8.972-12.808-20.134-12.808-33.475
			c0-13.836,4.13-25.169,12.393-34.011c8.262-8.837,18.296-13.257,30.109-13.257c5.434,0,10.535,1.021,15.302,3.052
			C237.166,55.228,241.574,58.273,245.622,62.337L245.622,62.337z M220.993,72.804c-7.301,0-13.362,2.415-18.19,7.251
			c-4.828,4.828-7.241,11.024-7.241,18.58c0,7.618,2.454,13.879,7.368,18.79c4.913,4.914,10.962,7.371,18.146,7.371
			c7.414,0,13.564-2.418,18.447-7.248c4.883-4.834,7.33-11.16,7.33-18.993c0-7.665-2.444-13.868-7.33-18.623
			C234.641,75.18,228.461,72.804,220.993,72.804z"/>
		<path fill="#2963AE" d="M279.32,27.609l20.255-20.252v134.648H279.32V27.609z"/>
		<path fill="#2963AE" d="M311.679,51.236h20.479v43.716c0,8.509,0.521,14.42,1.562,17.729c1.04,3.311,2.715,5.877,5.021,7.721
			c2.305,1.83,5.143,2.748,8.516,2.748c3.371,0,6.235-0.899,8.589-2.709c2.355-1.813,4.104-4.461,5.246-7.972
			c0.841-2.604,1.266-8.203,1.266-16.767V51.236h20.254v38.46c0,15.851-1.114,26.697-3.338,32.537
			c-2.725,7.123-6.728,12.584-12.021,16.396c-5.292,3.813-12.019,5.716-20.181,5.716c-8.854,0-16.016-2.228-21.479-6.675
			s-9.312-10.645-11.538-18.604c-1.583-5.508-2.375-15.52-2.375-30.032V51.236L311.679,51.236z"/>
		<path fill="#2963AE" d="M395.049,51.236h20.254v10.431c3.463-4.286,7.314-7.479,11.549-9.596c4.23-2.109,8.846-3.168,13.846-3.168
			c5.047,0,9.602,1.392,13.66,4.172c4.061,2.782,7.324,6.84,9.799,12.178c3.219-5.338,7.164-9.395,11.844-12.178
			c4.676-2.78,9.791-4.172,15.336-4.172c5.738,0,10.793,1.5,15.146,4.51c4.354,3.004,7.49,6.924,9.395,11.763
			c1.906,4.839,2.861,12.708,2.861,23.61v53.22h-20.404V95.952c0-10.286-1.139-17.255-3.414-20.892
			c-2.271-3.646-5.688-5.467-10.238-5.467c-3.459,0-6.563,1.114-9.313,3.337c-2.748,2.226-4.781,5.299-6.119,9.219
			c-1.334,3.919-2,10.219-2,18.899v40.963h-20.404V98.04c0-8.119-0.535-14.003-1.6-17.643c-1.063-3.645-2.666-6.36-4.795-8.141
			c-2.131-1.78-4.715-2.669-7.734-2.669c-3.377,0-6.436,1.126-9.188,3.379c-2.756,2.255-4.807,5.41-6.176,9.467
			c-1.361,4.062-2.049,10.46-2.049,19.188v40.381h-20.256V51.236L395.049,51.236z"/>
		<path fill="#2963AE" d="M530.28,51.236h20.258v9.305c4.588-4.354,8.754-7.383,12.482-9.087c3.725-1.7,7.547-2.552,11.445-2.552
			c8.004,0,14.789,3.143,20.375,9.433c4.691,5.339,7.037,13.237,7.037,23.692v59.979h-20.033v-39.749
			c0-10.832-0.432-18.028-1.301-21.581c-0.857-3.558-2.365-6.263-4.512-8.125c-2.148-1.868-4.799-2.798-7.955-2.798
			c-4.092,0-7.613,1.542-10.545,4.625c-2.939,3.088-4.971,7.347-6.107,12.79c-0.596,2.833-0.889,8.974-0.889,18.417v36.418h-20.258
			L530.28,51.236L530.28,51.236z"/>
		<path fill="#2963AE" d="M700.043,103.211h-71.609c1.033,6.453,3.801,11.584,8.287,15.395c4.494,3.811,10.221,5.72,17.188,5.72
			c8.328,0,15.488-2.976,21.477-8.935l18.779,9.012c-4.68,6.785-10.287,11.807-16.82,15.059c-6.529,3.254-14.291,4.88-23.27,4.88
			c-13.938,0-25.287-4.493-34.047-13.474c-8.768-8.988-13.146-20.236-13.146-33.746c0-13.849,4.369-25.347,13.105-34.494
			c8.74-9.146,19.689-13.726,32.865-13.726c13.986,0,25.365,4.58,34.133,13.726c8.76,9.148,13.145,21.229,13.145,36.247
			L700.043,103.211z M677.754,85.273c-1.475-5.059-4.375-9.176-8.709-12.345c-4.338-3.171-9.367-4.756-15.09-4.756
			c-6.217,0-11.672,1.78-16.355,5.339c-2.945,2.227-5.676,6.146-8.184,11.762H677.754z"/>
		<path fill="#2963AE" d="M709.612,32.131l20.254,19.106l0,0h12.021v19.61h-12.021v71.158h-20.254v-71.16h-10.387V51.236h10.387
			V32.131z"/>
	</g>
	<g display="inline">
		<path fill="#2963AE" d="M752.151,131.545c1.232,0.396,1.969,1.59,2.348,3.326c0.502,2.305,0.855,3.705,1.17,4.313h-1.803
			c-0.246-0.461-0.605-1.863-1.021-3.854c-0.457-2.213-1.338-3.201-3.225-3.201h-1.945v7.055h-1.734v-15.715
			c0.98-0.211,2.363-0.336,3.619-0.336c2.07,0,3.43,0.42,4.371,1.297c0.754,0.689,1.193,1.777,1.193,2.971
			c0,2.115-1.273,3.479-2.973,4.084V131.545L752.151,131.545z M749.723,130.791c2.219,0,3.645-1.254,3.645-3.18
			c0-2.365-1.779-3.102-3.729-3.102c-0.938,0-1.611,0.088-1.969,0.17v6.109L749.723,130.791L749.723,130.791z"/>
	</g>
	<circle display="inline" fill="none" stroke="#2963AE" stroke-miterlimit="10" cx="750.141" cy="131.326" r="11.699"/>
	<polygon display="inline" fill="#2963AE" points="92.034,11.25 33.776,44.841 33.776,60.586 78.913,86.828 78.913,139.314 
		92.034,147.188 151.342,113.072 151.342,44.841 	"/>
	<polygon display="inline" fill="#00B9BC" points="3.334,95.227 3.334,130.393 33.776,147.711 63.692,130.393 63.692,95.227 
		33.776,78.432 	"/>
	<g display="inline">
		<path fill="#878787" d="M38.925,187.752l5-0.156l-0.781-2.344l2.344-0.781c0.938,1.875,1.719,4.064,2.344,6.564l-2.656,0.781
			l-0.625-2.189l-3.125,0.314v16.875h-3.125V190.41l-4.531,0.469c-0.522,0.938-0.835,0.887-0.938-0.156l-0.625-2.656h3.125
			l2.5-3.438c-1.355-1.563-3.125-2.969-5.313-4.219l1.875-2.5l1.094,0.625l4.688-7.5l3.125,1.563
			c0.313,0.211,0.051,0.418-0.781,0.625l-4.844,7.031l2.031,1.719l4.063-6.406l2.813,1.563c0.313,0.211,0.051,0.418-0.781,0.625
			L38.925,187.752z M36.425,195.252c0,2.605-0.366,5.523-1.094,8.75l-2.969-1.094c0.833-3.229,1.25-6.301,1.25-9.219l2.969,0.625
			C37.206,194.525,37.153,194.838,36.425,195.252z M44.394,201.035c-0.313-2.604-0.938-4.844-1.875-6.719l2.188-0.625
			c1.145,1.459,1.926,3.646,2.344,6.563L44.394,201.035z M54.081,174.16c0.938,0.418,0.884,0.73-0.156,0.938
			c-1.355,3.438-3.335,6.771-5.938,10l-2.5-2.031c2.395-2.707,4.321-6.039,5.781-10L54.081,174.16z M46.425,203.377
			c0.938-2.5,1.509-5,1.719-7.5l2.813,0.781c0.833,0.313,0.781,0.574-0.156,0.781c-0.417,2.813-0.991,5.156-1.719,7.031
			L46.425,203.377z M58.769,185.566l1.875-1.406c1.875,1.875,3.281,3.646,4.219,5.313l-2.344,1.719l-1.094-1.719l-11.406,1.094
			c-0.313,0.521-0.574,0.625-0.781,0.313l-0.625-3.125h2.969l3.125-8.278l2.969,0.938c0.415,0.418,0.259,0.678-0.469,0.78
			l-2.969,6.563l5.938-0.313L58.769,185.566z M55.175,194.316c0.833,0.104,0.884,0.418,0.156,0.938v7.031
			c0,0.625,0.313,0.938,0.938,0.938h3.438c0.938,0,1.301-0.988,1.094-2.969l2.969,0.781c0.208,3.125-0.73,4.688-2.813,4.688h-5.781
			c-1.667,0-2.5-0.887-2.5-2.656v-8.75H55.175L55.175,194.316z M57.831,190.877c1.145,1.25,2.188,2.762,3.125,4.531l-2.5,1.719
			c-0.835-1.875-1.824-3.383-2.969-4.531L57.831,190.877z M65.956,185.41c-3.75-2.814-6.511-6.666-8.281-11.564l2.813-1.094
			c2.083,4.586,4.688,7.918,7.813,10L65.956,185.41z M65.956,202.596c-1.042-2.08-2.344-4.164-3.906-6.25l2.344-1.719
			c1.458,1.668,2.864,3.75,4.219,6.25L65.956,202.596z"/>
		<path fill="#878787" d="M112.286,184.002l-1.563,3.594c-7.085-2.602-12.656-6.719-16.719-12.344
			c-1.875,3.855-4.48,6.93-7.813,9.219h17.344v2.971h-17.5v-2.813c-1.875,1.563-4.063,2.918-6.563,4.063l-2.188-2.971
			c7.603-3.539,12.603-8.279,15-14.219l4.063,0.781c0.728,0.105,0.676,0.418-0.156,0.938
			C100.255,178.326,105.619,181.92,112.286,184.002z M86.349,206.66h-3.125v-15.469h23.281v15h-3.125v-1.721H86.349V206.66z
			 M86.349,201.502h17.031v-7.344H86.349V201.502z"/>
		<path fill="#878787" d="M141.273,187.596c0.208,7.92-3.179,14.064-10.156,18.439l-2.656-2.969
			c6.145-3.332,9.219-8.021,9.219-14.064v-6.719h3.281c0.938,0.105,1.04,0.469,0.313,1.094v4.064
			c3.75-2.814,6.614-5.572,8.594-8.281l-25.469,0.938l-0.313-3.594l28.438-0.781l1.094-0.313l2.344,2.813
			c0.313,0.418,0.051,0.574-0.781,0.469c-3.125,4.063-6.875,7.867-11.25,11.406L141.273,187.596z"/>
		<path fill="#878787" d="M167.603,203.221c5.208-5,7.813-11.195,7.813-18.594v-7.031h3.281c0.938,0.211,1.04,0.625,0.313,1.25
			v5.625c0,8.75-2.761,15.68-8.281,20.781L167.603,203.221z M188.54,199.002c4.583-1.77,8.801-5.313,12.656-10.625l2.188,2.969
			c-3.96,5.418-8.96,9.324-15,11.721l-1.25,0.625l-2.5-1.875l0.313-0.779V175.88h3.281c0.938,0.209,1.04,0.625,0.313,1.25
			L188.54,199.002L188.54,199.002z"/>
		<path fill="#878787" d="M212.995,197.91l6.563-0.156c3.75-8.125,6.614-16.406,8.594-24.844l3.594,1.25
			c0.938,0.625,0.833,1.094-0.313,1.406c-1.98,7.396-4.636,14.688-7.969,21.875l16.25-0.781c-2.188-2.916-3.906-5.051-5.156-6.406
			l3.125-2.188c3.54,3.854,6.926,8.387,10.156,13.594l-3.438,2.344l-2.5-4.063l-26.25,2.027c-0.625,1.045-1.094,1.045-1.406,0
			L212.995,197.91z"/>
		<path fill="#878787" d="M276.981,182.752h14.531v3.439h-14.375v2.813c0,7.709-3.335,13.543-10,17.5l-3.281-2.5
			c6.458-3.332,9.688-8.332,9.688-15v-2.813h-15.469v-3.439h15.313v-9.375h3.125c1.145,0.105,1.301,0.523,0.469,1.25
			L276.981,182.752L276.981,182.752z"/>
		<path fill="#878787" d="M304.249,192.127c10.938-4.582,19.219-11.039,24.844-19.375l2.969,2.5
			c0.832,0.625,0.471,1.094-1.094,1.406c-1.979,2.605-4.531,5.262-7.656,7.969v21.25h-3.594v-18.281
			c-3.646,2.814-7.918,5.367-12.813,7.656L304.249,192.127z"/>
		<path fill="#878787" d="M382.453,174.627v2.5h-7.5l1.563,3.125l-3.438,0.625l-1.406-3.75h-2.5
			c-0.625,1.043-1.354,2.031-2.188,2.969v2.031h14.688v7.031h-3.125v-4.531h-25.781v4.531h-3.125v-7.031h0.625l-2.029-2.5
			c3.02-2.395,5.154-5.258,6.404-8.594l3.281,0.313c0.521,0.314,0.415,0.625-0.313,0.939c-0.522,1.043-0.938,1.824-1.25,2.344h8.75
			v2.5h-4.846l1.406,3.125l-3.438,0.781l-1.096-3.906h-2.029c-1.147,1.668-2.656,3.334-4.531,5h13.281v-1.719l-0.625-0.781
			c2.707-2.604,4.426-5.469,5.153-8.594l3.281,0.313c0.416,0.313,0.313,0.625-0.313,0.938c-0.419,1.043-0.781,1.823-1.096,2.344
			h12.189v-0.003H382.453z M375.735,186.971v8.125H358.39v2.031h18.906v9.531h-3.125v-0.938H358.39v1.25h-3.125v-20L375.735,186.971
			L375.735,186.971z M372.61,189.471H358.39v3.125h14.221V189.471z M374.171,199.627H358.39v3.594h15.781V199.627L374.171,199.627z"
			/>
		<path fill="#878787" d="M405.969,197.441c-4.063,1.459-7.863,2.652-11.404,3.594c-0.313,0.834-0.625,0.99-0.938,0.469
			l-1.094-3.594l5.469-1.094v-8.598h-4.219v-2.969h4.219v-8.281h-4.688V174h12.5v2.969h-4.689v8.281h4.219v2.969h-4.219v7.814
			c0.832-0.104,2.344-0.521,4.531-1.25L405.969,197.441z M418.315,190.096v4.531h8.75v2.969h-8.75v4.846h10.313v2.971h-24.846
			v-2.971h11.875v-4.846h-8.438v-2.969h8.438v-4.531h-5.625v2.031h-2.656v-19.219h19.375v18.594h-2.656v-1.406H418.315z
			 M415.659,180.41v-5h-5.625v5H415.659z M415.659,182.91h-5.625v4.688h5.625V182.91z M424.094,175.41h-5.779v5h5.779V175.41z
			 M424.094,182.91h-5.779v4.688h5.779V182.91z"/>
		<path fill="#878787" d="M442.458,178.535l3.439-1.875c1.77,2.188,3.645,5.209,5.625,9.063l-3.596,2.031
			C446.049,183.691,444.225,180.619,442.458,178.535z M465.583,176.66l3.906,0.625c0.938,0.209,0.883,0.678-0.156,1.406
			c-0.625,6.668-2.555,12.293-5.781,16.875c-2.395,3.438-6.875,6.875-13.438,10.313l-2.814-2.813
			c5.939-2.707,10.414-6.096,13.439-10.156C463.131,189.682,464.747,184.266,465.583,176.66z"/>
		<path fill="#878787" d="M494.254,193.221h-3.594v-17.654h3.438c1.041,0.104,1.096,0.521,0.156,1.25V193.221z M510.348,189.785
			c0,7.813-3.645,13.438-10.938,16.875l-3.125-2.656c6.875-3.125,10.363-7.916,10.469-14.375v-15.625h3.281
			c1.041,0.209,1.145,0.625,0.313,1.25V189.785z"/>
		<path fill="#878787" d="M559.803,202.285h-28.125v-2.969h16.875l0.314-11.721h-12.814v-2.971h15.939l-0.314,14.688h8.125V202.285z
			"/>
		<path fill="#878787" d="M573.323,190.721v-3.438h34.844v3.438H573.323z"/>
		<path fill="#878787" d="M631.682,187.127l-2.5,3.281c-3.125-2.289-5.729-3.957-7.813-5l2.344-3.281
			C626.319,183.484,628.973,185.15,631.682,187.127z M624.807,201.035c11.355-2.5,19.896-8.385,25.625-17.656l2.814,2.813
			c-5.314,8.543-13.543,14.586-24.689,18.125c-0.313,1.25-0.834,1.303-1.563,0.156L624.807,201.035z M636.057,177.91l-2.188,3.281
			c-2.814-1.979-5.418-3.646-7.814-5l2.031-3.281C630.903,174.471,633.557,176.141,636.057,177.91z"/>
		<path fill="#878787" d="M671.452,203.535v-2.969h15.938v-6.564h-15v-2.969h15v-6.25h-15.938v-2.969h19.063v23.438h-3.125v-1.719
			h-15.938V203.535z"/>
		<path fill="#878787" d="M743.25,185.41c-5.521,11.459-14.793,17.5-27.813,18.125c-0.521,1.352-1.047,1.457-1.564,0.313
			l-1.25-4.063c13.539-0.314,22.654-5.885,27.344-16.719L743.25,185.41z M713.25,179.002l2.656-3.281
			c2.188,1.355,4.941,3.596,8.281,6.721l-2.973,2.971C718.407,182.807,715.75,180.67,713.25,179.002z"/>
	</g>
</g>
</svg>
